ply
format ascii 1.0
comment Created by Blender 2.63 (sub 0) - www.blender.org, source file: 'DIAMOND.blend'
element vertex 336
property float x
property float y
property float z
property float nx
property float ny
property float nz
element face 124
property list uchar uint vertex_indices
end_header
-1.607657 0.759421 -0.396041 -0.747200 0.422972 0.512627
-0.332338 0.402319 1.757498 -0.747200 0.422972 0.512627
-0.624513 0.694493 1.090552 -0.747200 0.422972 0.512627
-1.208862 1.278843 -0.243339 -0.747200 0.422972 0.512627
0.609114 1.677638 -0.396041 0.422972 0.747200 0.512627
0.252012 0.402319 1.757498 0.422972 0.747200 0.512627
0.544187 0.694494 1.090552 0.422972 0.747200 0.512627
1.128536 1.278843 -0.243339 0.422972 0.747200 0.512627
-0.040163 0.936539 1.090552 -0.229264 0.827437 0.512627
-0.040163 1.762934 -0.243339 -0.229264 0.827437 0.512627
-0.689440 1.677638 -0.396041 -0.229264 0.827437 0.512627
-0.040163 0.523342 1.757498 -0.229264 0.827437 0.512627
1.527331 0.759421 -0.396041 0.827436 0.229264 0.512627
0.373035 0.110144 1.757498 0.827436 0.229264 0.512627
0.786232 0.110144 1.090552 0.827436 0.229264 0.512627
1.612627 0.110144 -0.243339 0.827436 0.229264 0.512627
-1.607657 -0.539133 -0.396041 -0.827436 -0.229264 0.512627
-0.453361 0.110144 1.757498 -0.827436 -0.229264 0.512627
-0.866558 0.110144 1.090552 -0.827436 -0.229264 0.512627
-1.692953 0.110144 -0.243339 -0.827436 -0.229264 0.512627
-0.040163 -1.542646 -0.243339 -0.229265 -0.827436 0.512627
-0.040163 -0.716251 1.090552 -0.229265 -0.827436 0.512627
-0.040163 -0.303054 1.757498 -0.229265 -0.827436 0.512627
-0.689440 -1.457350 -0.396041 -0.229265 -0.827436 0.512627
0.609114 -1.457350 -0.396041 0.229264 -0.827436 0.512627
-0.040163 -0.303054 1.757498 0.229264 -0.827436 0.512627
-0.040163 -0.716251 1.090552 0.229264 -0.827436 0.512627
-0.040163 -1.542646 -0.243339 0.229264 -0.827436 0.512627
0.609114 -1.457350 -0.396041 0.000000 0.000000 0.000000
-0.040163 -1.542646 -0.243339 0.000000 0.000000 0.000000
0.595969 -1.459077 -0.392949 0.000000 0.000000 0.000000
0.252012 -0.182031 1.757498 0.747200 -0.422972 0.512627
0.544187 -0.474206 1.090552 0.747200 -0.422972 0.512627
1.527331 -0.539133 -0.396041 0.747200 -0.422972 0.512627
1.128536 -1.058555 -0.243339 0.747200 -0.422972 0.512627
-1.607657 -0.539133 -0.396041 -0.617328 -0.617328 -0.487661
-1.148549 -0.998242 -0.396041 -0.617328 -0.617328 -0.487661
-0.689440 -1.457350 -0.396041 -0.617328 -0.617328 -0.487661
-1.208862 -1.058555 -0.243339 -0.617328 -0.617328 -0.487661
-0.689440 -1.457350 -0.396041 -0.422972 -0.747200 0.512627
-0.332338 -0.182031 1.757498 -0.422972 -0.747200 0.512627
-0.624513 -0.474206 1.090552 -0.422972 -0.747200 0.512627
-1.208862 -1.058555 -0.243339 -0.422972 -0.747200 0.512627
-1.692953 0.110144 -0.243339 -0.827436 0.229264 0.512627
-0.866558 0.110144 1.090552 -0.827436 0.229264 0.512627
-0.453361 0.110144 1.757498 -0.827436 0.229264 0.512627
-1.607657 0.759421 -0.396041 -0.827436 0.229264 0.512627
0.609114 1.677638 -0.396041 0.000000 0.000000 0.000000
-0.040163 0.523342 1.757498 0.000000 0.000000 0.000000
-0.040163 0.523342 1.757498 0.000000 0.000000 0.000000
0.609114 1.677638 -0.396041 0.000000 0.000000 0.000000
-0.040163 1.762934 -0.243339 0.229264 0.827436 0.512627
-0.040163 0.936539 1.090552 0.229264 0.827436 0.512627
-0.040163 0.523342 1.757498 0.229264 0.827436 0.512627
0.609114 1.677638 -0.396041 0.229264 0.827436 0.512627
-0.453361 0.110144 1.757498 0.000000 0.000000 0.000000
-1.607657 -0.539133 -0.396041 0.000000 0.000000 0.000000
-1.607657 -0.539133 -0.396041 0.000000 0.000000 0.000000
-0.453361 0.110144 1.757498 0.000000 0.000000 0.000000
-1.208862 1.278843 -0.243339 -0.422972 0.747200 0.512627
-0.624513 0.694493 1.090552 -0.422972 0.747200 0.512627
-0.332338 0.402319 1.757498 -0.422972 0.747200 0.512627
-0.689440 1.677638 -0.396041 -0.422972 0.747200 0.512627
0.252012 -0.182031 1.757498 0.000000 0.000000 0.000000
1.527331 -0.539133 -0.396041 0.000000 0.000000 0.000000
1.527331 -0.539133 -0.396041 0.000000 0.000000 0.000000
0.252012 -0.182031 1.757498 0.000000 0.000000 0.000000
1.128536 1.278843 -0.243339 0.747200 0.422972 0.512627
0.544187 0.694494 1.090552 0.747200 0.422972 0.512627
0.252012 0.402319 1.757498 0.747200 0.422972 0.512627
1.527331 0.759421 -0.396041 0.747200 0.422972 0.512627
0.252012 0.402319 1.757498 0.000000 0.000000 0.000000
0.252012 0.402319 1.757498 0.000000 0.000000 0.000000
-1.208862 -1.058555 -0.243339 -0.747200 -0.422971 0.512627
-0.624513 -0.474206 1.090552 -0.747200 -0.422971 0.512627
-0.332338 -0.182031 1.757498 -0.747200 -0.422971 0.512627
-1.607657 -0.539133 -0.396041 -0.747200 -0.422971 0.512627
1.527331 0.759421 -0.396041 0.000000 0.000000 0.000000
1.527331 0.759421 -0.396041 0.000000 0.000000 0.000000
0.609114 -1.457350 -0.396041 0.000000 0.000000 0.000000
0.544187 -0.474206 1.090552 0.422972 -0.747200 0.512628
0.252012 -0.182031 1.757498 0.422972 -0.747200 0.512628
0.609114 -1.457350 -0.396041 0.422972 -0.747200 0.512628
0.544187 -0.474206 1.090552 0.422974 -0.747199 0.512627
0.609114 -1.457350 -0.396041 0.422974 -0.747199 0.512627
0.614487 -1.453226 -0.394461 0.422974 -0.747199 0.512627
1.128536 -1.058555 -0.243339 0.422972 -0.747200 0.512628
0.614487 -1.453226 -0.394461 0.422972 -0.747200 0.512628
-1.607657 0.759421 -0.396041 0.000000 0.000000 0.000000
-1.607657 0.759421 -0.396041 0.000000 0.000000 0.000000
0.373035 0.110144 1.757498 0.000000 0.000000 0.000000
0.373035 0.110144 1.757498 0.000000 0.000000 0.000000
1.612627 0.110144 -0.243339 0.827436 -0.229264 0.512627
0.786232 0.110144 1.090552 0.827436 -0.229264 0.512627
0.373035 0.110144 1.757498 0.827436 -0.229264 0.512627
1.527331 -0.539133 -0.396041 0.827436 -0.229264 0.512627
-1.607657 0.759421 -0.396041 -0.791681 0.327925 0.515468
-0.453361 0.110144 1.757498 -0.791681 0.327925 0.515468
-0.040163 0.110144 2.424444 -0.791681 0.327925 0.515468
-0.332338 0.402319 1.757498 -0.791681 0.327925 0.515468
0.609114 1.677638 -0.396041 0.327925 0.791681 0.515468
-0.040163 0.523342 1.757498 0.327925 0.791681 0.515468
-0.040163 0.110144 2.424444 0.327925 0.791681 0.515468
0.252012 0.402319 1.757498 0.327925 0.791681 0.515468
-0.689440 1.677638 -0.396041 -0.327925 0.791681 0.515468
-0.332338 0.402319 1.757498 -0.327925 0.791681 0.515468
-0.040163 0.110144 2.424444 -0.327925 0.791681 0.515468
-0.040163 0.523342 1.757498 -0.327925 0.791681 0.515468
1.527331 0.759421 -0.396041 0.791681 0.327925 0.515468
0.252012 0.402319 1.757498 0.791681 0.327925 0.515468
-0.040163 0.110144 2.424444 0.791681 0.327925 0.515468
0.373035 0.110144 1.757498 0.791681 0.327925 0.515468
-1.607657 -0.539133 -0.396041 -0.791681 -0.327925 0.515468
-0.332338 -0.182031 1.757498 -0.791681 -0.327925 0.515468
-0.040163 0.110144 2.424444 -0.791681 -0.327925 0.515468
-0.453361 0.110144 1.757498 -0.791681 -0.327925 0.515468
-0.689440 -1.457350 -0.396041 -0.327925 -0.791681 0.515468
-0.040163 -0.303054 1.757498 -0.327925 -0.791681 0.515468
-0.040163 0.110144 2.424444 -0.327925 -0.791681 0.515468
-0.332338 -0.182031 1.757498 -0.327925 -0.791681 0.515468
0.609114 -1.457350 -0.396041 0.327925 -0.791681 0.515468
0.252012 -0.182031 1.757498 0.327925 -0.791681 0.515468
-0.040163 0.110144 2.424444 0.327925 -0.791681 0.515468
-0.040163 -0.303054 1.757498 0.327925 -0.791681 0.515468
1.527331 -0.539133 -0.396041 0.791681 -0.327925 0.515468
0.373035 0.110144 1.757498 0.791681 -0.327925 0.515468
-0.040163 0.110144 2.424444 0.791681 -0.327925 0.515468
0.252012 -0.182031 1.757498 0.791681 -0.327925 0.515468
-0.689440 -1.457350 -0.396041 0.000000 0.000000 0.000000
-0.332338 -0.182031 1.757498 0.000000 0.000000 0.000000
-0.332338 -0.182031 1.757498 0.000000 0.000000 0.000000
-0.689440 -1.457350 -0.396041 0.000000 0.000000 0.000000
-0.689440 1.677638 -0.396041 0.000000 0.000000 0.000000
-0.689440 1.677638 -0.396041 0.000000 0.000000 0.000000
-0.040163 -0.303054 1.757498 0.000000 0.000000 0.000000
-0.040163 -0.303054 1.757498 0.000000 0.000000 0.000000
-0.332338 0.402319 1.757498 0.000000 0.000000 0.000000
-0.332338 0.402319 1.757498 0.000000 0.000000 0.000000
0.609114 -1.457350 -0.396041 0.617331 -0.617331 -0.487653
0.615705 -1.450759 -0.396041 0.617331 -0.617331 -0.487653
0.614487 -1.453226 -0.394461 0.617331 -0.617331 -0.487653
-0.689440 -1.457350 -0.396041 -0.000000 -0.873033 -0.487661
0.609114 -1.457350 -0.396041 -0.000000 -0.873033 -0.487661
0.595969 -1.459077 -0.392949 -0.000000 -0.873033 -0.487661
-0.040163 -1.542646 -0.243339 -0.000000 -0.873033 -0.487661
-1.607657 0.759421 -0.396041 -0.873033 0.000000 -0.487660
-1.607657 0.110144 -0.396041 -0.873033 0.000000 -0.487660
-1.607657 -0.539133 -0.396041 -0.873033 0.000000 -0.487660
-1.692953 0.110144 -0.243339 -0.873033 0.000000 -0.487660
-0.689440 1.677638 -0.396041 -0.617328 0.617328 -0.487660
-1.607657 0.759421 -0.396041 -0.617328 0.617328 -0.487660
-1.208862 1.278843 -0.243339 -0.617328 0.617328 -0.487660
-0.040163 1.762934 -0.243339 0.000000 0.873034 -0.487660
0.609114 1.677638 -0.396041 0.000000 0.873034 -0.487660
-0.689440 1.677638 -0.396041 0.000000 0.873034 -0.487660
0.609114 1.677638 -0.396041 0.617328 0.617328 -0.487661
1.128536 1.278843 -0.243339 0.617328 0.617328 -0.487661
1.527331 0.759421 -0.396041 0.617328 0.617328 -0.487661
1.527331 -0.539133 -0.396041 0.873034 0.000000 -0.487660
1.527331 0.759421 -0.396041 0.873034 0.000000 -0.487660
1.612627 0.110144 -0.243339 0.873034 0.000000 -0.487660
0.609114 1.677638 -0.396041 0.000000 0.000000 0.000000
-0.689440 1.677638 -0.396041 0.000000 0.000000 0.000000
1.527331 -0.539133 -0.396041 0.000000 0.000000 1.000000
0.615705 -1.450759 -0.396041 0.000000 0.000000 1.000000
0.609114 -1.457350 -0.396041 0.000000 0.000000 1.000000
1.527331 -0.539133 -0.396041 0.000000 0.000000 0.000000
1.527331 0.759421 -0.396041 0.000000 0.000000 0.000000
-1.148549 -0.998242 -0.396041 -0.000000 -0.000000 1.000000
-1.607657 -0.539133 -0.396041 -0.000000 -0.000000 1.000000
-0.689440 -1.457350 -0.396041 -0.000000 -0.000000 1.000000
-1.607657 0.759421 -0.396041 0.000000 0.000000 0.000000
0.591533 -1.457350 -0.396041 0.000000 0.000000 1.000000
0.609114 -1.457350 -0.396041 0.000000 0.000000 1.000000
-0.689440 -1.457350 -0.396041 0.000000 0.000000 1.000000
-1.607657 0.759421 -0.396041 -0.548086 0.132320 -0.825890
-1.059707 0.532453 -0.796041 -0.548086 0.132320 -0.825890
-1.463034 0.110144 -0.596041 -0.548086 0.132320 -0.825890
-1.607657 -0.539133 -0.396041 0.000000 0.000000 -1.000000
-1.148549 -0.998242 -0.396041 0.000000 0.000000 -1.000000
-0.689440 -1.457350 -0.396041 0.000000 0.000000 -1.000000
-0.689440 1.677638 -0.396041 0.000000 0.000000 1.000000
-1.148549 1.218530 -0.396041 0.000000 0.000000 1.000000
-1.607657 0.759421 -0.396041 0.000000 0.000000 1.000000
1.527331 0.759421 -0.396041 0.000000 0.000000 1.000000
1.068223 1.218530 -0.396041 0.000000 0.000000 1.000000
0.609114 1.677638 -0.396041 0.000000 0.000000 1.000000
0.591533 -1.457350 -0.396041 0.000000 0.000000 0.000000
0.591537 -1.457350 -0.396041 0.000000 0.000000 0.000000
0.609114 -1.457350 -0.396041 0.000000 0.000000 0.000000
0.609114 -1.457350 -0.396041 0.000000 0.000000 0.000000
-1.607657 0.110144 -0.396041 0.000000 0.000000 0.000000
-1.607657 -0.539133 -0.396041 0.000000 0.000000 0.000000
-0.040163 1.677638 -0.396041 0.000000 0.000000 0.000000
-0.689440 1.677638 -0.396041 0.000000 0.000000 0.000000
-0.040163 1.129688 -0.796041 -0.000000 0.000000 -1.000000
0.382146 1.129688 -0.796041 -0.000000 0.000000 -1.000000
0.680764 0.831071 -0.796041 -0.000000 0.000000 -1.000000
-0.462472 1.129688 -0.796041 0.000000 0.000000 -1.000000
-0.761090 0.831071 -0.796041 0.000000 0.000000 -1.000000
0.979381 0.532453 -0.796041 0.000000 0.000000 -1.000000
-1.059707 0.532453 -0.796041 0.000000 -0.000000 -1.000000
-1.059707 0.110144 -0.796041 0.000000 0.000000 -1.000000
0.979381 0.110144 -0.796041 0.000000 0.000000 -1.000000
-1.059707 -0.312165 -0.796041 0.000000 0.000000 -1.000000
0.979381 -0.312165 -0.796041 0.000000 0.000000 -1.000000
-0.761090 -0.610783 -0.796041 0.000000 0.000000 -1.000000
0.680764 -0.610783 -0.796041 0.000000 0.000000 -1.000000
-0.462472 -0.909400 -0.796041 0.000000 0.000000 -1.000000
-0.040163 -0.909400 -0.796041 0.000000 0.000000 -1.000000
0.382146 -0.909400 -0.796041 0.000000 0.000000 -1.000000
0.609114 1.677638 -0.396041 0.132320 0.548086 -0.825890
0.382146 1.129688 -0.796041 0.132320 0.548086 -0.825890
-0.040163 1.533015 -0.596041 0.132320 0.548086 -0.825890
0.609114 -1.457350 -0.396041 0.295652 -0.481819 -0.824888
0.382146 -0.909400 -0.796041 0.295652 -0.481819 -0.824888
0.965959 -0.895978 -0.596041 0.295652 -0.481819 -0.824888
0.615350 -1.451115 -0.396041 0.295652 -0.481819 -0.824888
1.382708 0.110144 -0.596041 0.548086 -0.132320 -0.825890
1.500104 -0.527856 -0.415916 0.548086 -0.132320 -0.825890
0.979381 -0.312165 -0.796041 0.548086 -0.132320 -0.825890
-1.607657 -0.539133 -0.396041 -0.481119 -0.293991 -0.825890
-1.059707 -0.312165 -0.796041 -0.481119 -0.293991 -0.825890
-1.046285 -0.895978 -0.596041 -0.481119 -0.293991 -0.825890
-0.689440 1.677638 -0.396041 -0.293991 0.481119 -0.825890
-0.462472 1.129688 -0.796041 -0.293991 0.481119 -0.825890
-1.046285 1.116266 -0.596041 -0.293991 0.481119 -0.825890
1.527331 0.759421 -0.396041 0.481119 0.293991 -0.825890
0.979381 0.532453 -0.796041 0.481119 0.293991 -0.825890
0.965959 1.116266 -0.596041 0.481119 0.293991 -0.825890
-0.689440 -1.457350 -0.396041 -0.132320 -0.548086 -0.825890
-0.462472 -0.909400 -0.796041 -0.132320 -0.548086 -0.825890
-0.040163 -1.312727 -0.596041 -0.132320 -0.548086 -0.825890
0.382146 1.129688 -0.796041 0.293991 0.481119 -0.825890
0.609114 1.677638 -0.396041 0.293991 0.481119 -0.825890
0.965959 1.116266 -0.596041 0.293991 0.481119 -0.825890
-0.462472 1.129688 -0.796041 -0.132320 0.548086 -0.825890
-0.689440 1.677638 -0.396041 -0.132320 0.548086 -0.825890
-0.040163 1.533015 -0.596041 -0.132320 0.548086 -0.825890
-1.059707 0.532453 -0.796041 -0.481119 0.293991 -0.825890
-1.607657 0.759421 -0.396041 -0.481119 0.293991 -0.825890
-1.046285 1.116266 -0.596041 -0.481119 0.293991 -0.825890
-1.059707 -0.312165 -0.796041 -0.548086 -0.132320 -0.825890
-1.607657 -0.539133 -0.396041 -0.548086 -0.132320 -0.825890
-1.463034 0.110144 -0.596041 -0.548086 -0.132320 -0.825890
-0.462472 -0.909400 -0.796041 -0.293991 -0.481119 -0.825890
-0.689440 -1.457350 -0.396041 -0.293991 -0.481119 -0.825890
-1.046285 -0.895978 -0.596041 -0.293991 -0.481119 -0.825890
0.382146 -0.909400 -0.796041 0.130970 -0.551394 -0.823900
0.609114 -1.457350 -0.396041 0.130970 -0.551394 -0.823900
0.591537 -1.457350 -0.396041 0.130970 -0.551394 -0.823900
-0.040163 -1.312727 -0.596041 0.130970 -0.551394 -0.823900
0.979381 -0.312165 -0.796041 0.481119 -0.293991 -0.825890
1.500104 -0.527856 -0.415916 0.481119 -0.293991 -0.825890
0.965959 -0.895978 -0.596041 0.481119 -0.293991 -0.825890
0.979381 0.532453 -0.796041 0.548086 0.132320 -0.825890
1.527331 0.759421 -0.396041 0.548086 0.132320 -0.825890
1.382708 0.110144 -0.596041 0.548086 0.132320 -0.825890
0.680764 -0.610783 -0.796041 0.314136 -0.314136 -0.895900
0.979381 -0.312165 -0.796041 0.314136 -0.314136 -0.895900
0.965959 -0.895978 -0.596041 0.314136 -0.314136 -0.895900
0.382146 -0.909400 -0.796041 0.314136 -0.314136 -0.895900
0.979381 0.532453 -0.796041 0.444255 0.000000 -0.895900
1.382708 0.110144 -0.596041 0.444255 0.000000 -0.895900
0.979381 -0.312165 -0.796041 0.444255 0.000000 -0.895900
0.979381 0.110144 -0.796041 0.444255 0.000000 -0.895900
-0.040163 -0.909400 -0.796041 -0.000000 -0.444255 -0.895900
0.382146 -0.909400 -0.796041 -0.000000 -0.444255 -0.895900
-0.040163 -1.312727 -0.596041 -0.000000 -0.444255 -0.895900
-0.462472 -0.909400 -0.796041 -0.000000 -0.444255 -0.895900
-1.046285 1.116266 -0.596041 -0.314136 0.314136 -0.895900
-0.462472 1.129688 -0.796041 -0.314136 0.314136 -0.895900
-0.761090 0.831071 -0.796041 -0.314136 0.314136 -0.895900
-1.059707 0.532453 -0.796041 -0.314136 0.314136 -0.895900
-1.463034 0.110144 -0.596041 -0.444255 0.000000 -0.895900
-1.059707 0.532453 -0.796041 -0.444255 0.000000 -0.895900
-1.059707 0.110144 -0.796041 -0.444255 0.000000 -0.895900
-1.059707 -0.312165 -0.796041 -0.444255 0.000000 -0.895900
-0.462472 -0.909400 -0.796041 -0.314136 -0.314136 -0.895900
-1.046285 -0.895978 -0.596041 -0.314136 -0.314136 -0.895900
-1.059707 -0.312165 -0.796041 -0.314136 -0.314136 -0.895900
-0.761090 -0.610783 -0.796041 -0.314136 -0.314136 -0.895900
-0.040163 1.533015 -0.596041 -0.000000 0.444255 -0.895900
0.382146 1.129688 -0.796041 -0.000000 0.444255 -0.895900
-0.040163 1.129688 -0.796041 -0.000000 0.444255 -0.895900
-0.462472 1.129688 -0.796041 -0.000000 0.444255 -0.895900
0.965959 1.116266 -0.596041 0.314136 0.314136 -0.895900
0.979381 0.532453 -0.796041 0.314136 0.314136 -0.895900
0.680764 0.831071 -0.796041 0.314136 0.314136 -0.895900
0.382146 1.129688 -0.796041 0.314136 0.314136 -0.895900
1.500104 -0.527856 -0.415916 0.567006 -0.546629 -0.616199
1.527331 -0.539133 -0.396041 0.567006 -0.546629 -0.616199
1.068223 -0.998242 -0.396041 0.567006 -0.546629 -0.616199
0.965959 -0.895978 -0.596041 0.567006 -0.546629 -0.616199
-0.689440 1.677638 -0.396041 0.000000 0.810336 -0.585966
-0.040163 1.677638 -0.396041 0.000000 0.810336 -0.585966
-0.040163 1.533015 -0.596041 0.000000 0.810336 -0.585966
-1.148549 -0.998242 -0.396041 -0.572994 -0.572994 -0.585966
-1.607657 -0.539133 -0.396041 -0.572994 -0.572994 -0.585966
-1.046285 -0.895978 -0.596041 -0.572994 -0.572994 -0.585966
-1.607657 -0.539133 -0.396041 -0.810336 -0.000000 -0.585966
-1.607657 0.110144 -0.396041 -0.810336 -0.000000 -0.585966
-1.463034 0.110144 -0.596041 -0.810336 -0.000000 -0.585966
1.068223 1.218530 -0.396041 0.572994 0.572994 -0.585966
1.527331 0.759421 -0.396041 0.572994 0.572994 -0.585966
0.965959 1.116266 -0.596041 0.572994 0.572994 -0.585966
0.609114 1.677638 -0.396041 0.000000 0.810336 -0.585966
-0.040163 -1.457350 -0.396041 0.000000 0.000000 1.000000
-0.040163 -1.457350 -0.396041 0.000000 0.000000 0.000000
1.527331 -0.539133 -0.396041 0.617328 -0.617328 -0.487661
1.128536 -1.058555 -0.243339 0.617328 -0.617328 -0.487661
0.614487 -1.453226 -0.394461 0.617328 -0.617328 -0.487661
0.615705 -1.450759 -0.396041 0.617333 -0.617333 -0.487649
1.527331 -0.539133 -0.396041 0.617333 -0.617333 -0.487649
0.614487 -1.453226 -0.394461 0.617333 -0.617333 -0.487649
-0.040163 -1.312727 -0.596041 0.000000 -0.810336 -0.585966
0.591537 -1.457350 -0.396041 0.000000 -0.810336 -0.585966
-0.040163 -1.457350 -0.396041 0.000000 -0.810336 -0.585966
0.609114 1.677638 -0.396041 0.572994 0.572994 -0.585966
1.527331 0.110144 -0.396041 0.787459 -0.014409 -0.616199
1.527331 -0.539133 -0.396041 0.787459 -0.014409 -0.616199
1.500104 -0.527856 -0.415916 0.787459 -0.014409 -0.616199
1.382708 0.110144 -0.596041 0.787459 -0.014409 -0.616199
1.527331 0.759421 -0.396041 0.810336 0.000000 -0.585966
1.527331 0.110144 -0.396041 0.810336 0.000000 -0.585966
1.382708 0.110144 -0.596041 0.810336 0.000000 -0.585966
-1.607657 0.759421 -0.396041 -0.572994 0.572994 -0.585966
-1.148549 1.218530 -0.396041 -0.572994 0.572994 -0.585966
-1.046285 1.116266 -0.596041 -0.572994 0.572994 -0.585966
-0.689440 1.677638 -0.396041 -0.572994 0.572994 -0.585966
-0.689440 -1.457350 -0.396041 -0.572994 -0.572994 -0.585966
-0.689440 -1.457350 -0.396041 -0.000000 -0.810336 -0.585966
0.615350 -1.451115 -0.396041 0.572994 -0.572994 -0.585966
0.965959 -0.895978 -0.596041 0.572994 -0.572994 -0.585966
1.068223 -0.998242 -0.396041 0.572994 -0.572994 -0.585966
-1.607657 0.759421 -0.396041 -0.810336 -0.000000 -0.585966
4 0 1 2 3
4 4 5 6 7
4 8 9 10 11
4 12 13 14 15
4 16 17 18 19
4 20 21 22 23
3 24 25 26
3 24 26 27
3 28 29 30
3 31 32 33
3 32 34 33
4 35 36 37 38
4 39 40 41 42
4 43 44 45 46
4 47 48 49 50
4 51 52 53 54
4 55 56 57 58
4 59 60 61 62
4 63 64 65 66
4 67 68 69 70
4 71 47 50 72
4 73 74 75 76
4 77 71 72 78
4 28 63 66 79
3 80 81 82
3 83 84 85
3 86 80 87
4 88 55 58 89
4 90 77 78 91
4 92 93 94 95
4 96 97 98 99
4 100 101 102 103
4 104 105 106 107
4 108 109 110 111
4 112 113 114 115
4 116 117 118 119
4 120 121 122 123
4 124 125 126 127
4 91 65 64 90
4 128 129 130 131
4 56 130 129 57
4 48 132 133 49
4 131 134 135 128
4 132 136 137 133
4 136 88 89 137
4 134 28 79 135
3 138 139 140
4 141 142 143 144
4 145 146 147 148
3 149 150 151
3 152 153 154
3 155 156 157
3 158 159 160
4 132 47 161 162
3 163 164 165
4 77 64 166 167
3 168 169 170
4 88 132 162 171
4 47 77 167 161
3 172 173 174
3 175 176 177
3 178 179 180
3 181 182 183
3 184 185 186
4 187 188 189 190
3 171 191 192
3 161 193 194
3 195 196 197
3 198 195 199
3 195 197 199
3 197 200 199
3 200 201 199
3 200 202 201
3 200 203 202
3 203 204 202
3 203 205 204
3 205 206 204
3 205 207 206
3 207 208 206
3 207 209 208
3 207 210 209
3 211 212 213
4 214 215 216 217
3 218 219 220
3 221 222 223
3 224 225 226
3 227 228 229
3 230 231 232
3 233 234 235
3 236 237 238
3 239 240 241
3 242 243 244
3 245 246 247
4 248 249 250 251
3 252 253 254
3 255 256 257
4 258 259 260 261
4 262 263 264 265
4 266 267 268 269
4 270 271 272 273
4 274 275 276 277
4 278 279 280 281
4 282 283 284 285
4 286 287 288 289
4 290 291 292 293
3 294 295 296
3 297 298 299
3 300 301 302
3 303 304 305
3 295 306 296
3 307 172 170
3 308 188 187
3 309 310 311
3 312 313 314
3 315 316 317
3 318 303 305
4 319 320 321 322
3 323 324 325
3 326 327 328
3 327 329 328
3 330 297 299
3 317 331 315
3 332 333 334
3 301 335 302
